<svg width="153.407568359375px" height="152.00498046875px" xmlns="http://www.w3.org/2000/svg" viewBox="173.2962158203125 -1.0024902343750028 153.407568359375 152.00498046875" style="background: rgba(0, 0, 0, 0);" preserveAspectRatio="xMidYMid"><defs><linearGradient id="editing-outline-gradient" x1="-0.41354545764260087" x2="1.4135454576426008" y1="0.09326335692419985" y2="0.9067366430758002"><stop offset="0" stop-color="#ee4208"></stop><stop offset="1" stop-color="#4139ff"></stop></linearGradient><filter id="editing-outline" x="-100%" y="-100%" width="300%" height="300%"><feMorphology in="SourceGraphic" operator="dilate" radius="1" result="outline"></feMorphology><feComposite operator="out" in="outline" in2="SourceAlpha"></feComposite></filter></defs><g filter="url(#editing-outline)"><g transform="translate(200.760000705719, 104.23999977111816)"><path d="M37.44 0L37.44-24.64L15.12-24.64L15.12 0L5.60 0L5.60-54.16L15.12-54.16L15.12-31.60L37.44-31.60L37.44-54.16L46.96-54.16L46.96 0L37.44 0ZM65.68 0.32L65.68 0.32Q61.44 0.32 59.20-2.20L59.20-2.20L59.20-2.20Q56.96-4.72 56.96-8.72L56.96-8.72L56.96-39.84L66.08-39.84L66.08-9.52L66.08-9.52Q66.08-7.68 66.64-7.04L66.64-7.04L66.64-7.04Q67.20-6.40 68.32-6.40L68.32-6.40L68.32-6.40Q68.64-6.40 69-6.40L69-6.40L69-6.40Q69.36-6.40 69.68-6.48L69.68-6.48L69.68-6.48Q70-6.48 70.40-6.56L70.40-6.56L71.36-0.80L71.36-0.80Q70.80-0.48 69.92-0.24L69.92-0.24L69.92-0.24Q69.20 0 68.12 0.16L68.12 0.16L68.12 0.16Q67.04 0.32 65.68 0.32L65.68 0.32ZM61.68-57.60L61.68-57.60Q64.24-57.60 65.60-56.08L65.60-56.08L65.60-56.08Q66.96-54.56 66.96-52.16L66.96-52.16L66.96-52.16Q66.96-49.76 65.56-48.16L65.56-48.16L65.56-48.16Q64.16-46.56 61.44-46.56L61.44-46.56L61.44-46.56Q58.88-46.56 57.48-48.12L57.48-48.12L57.48-48.12Q56.08-49.68 56.08-51.92L56.08-51.92L56.08-51.92Q56.08-54.40 57.48-56L57.48-56L57.48-56Q58.88-57.60 61.68-57.60L61.68-57.60ZM86.64-11.20L86.64-11.20Q89.44-11.20 90.96-9.52L90.96-9.52L90.96-9.52Q92.48-7.84 92.48-5.20L92.48-5.20L92.48-5.20Q92.48-2.64 90.96-0.88L90.96-0.88L90.96-0.88Q89.44 0.88 86.40 0.88L86.40 0.88L86.40 0.88Q83.60 0.88 82.12-0.88L82.12-0.88L82.12-0.88Q80.64-2.64 80.64-5.04L80.64-5.04L80.64-5.04Q80.64-7.60 82.16-9.40L82.16-9.40L82.16-9.40Q83.68-11.20 86.64-11.20L86.64-11.20ZM82.72-17.60L82.72-54.16L92.88-54.16L90.56-17.60L82.72-17.60Z" fill="url(#editing-outline-gradient)"></path></g></g><style>text {
  font-size: 64px;
  font-family: Arial Black;
  dominant-baseline: central;
  text-anchor: middle;
}</style></svg>